<!DOCTYPE svg PUBLIC "-//W3C//DTD SVG 20010904//EN" "http://www.w3.org/TR/2001/REC-SVG-20010904/DTD/svg10.dtd">
<!--suppress ALL -->
<svg version="1.0" xmlns="http://www.w3.org/2000/svg" width="74px" height="58px" viewBox="0 0 740 580" preserveAspectRatio="xMidYMid meet">
<!-- generated by www.vectorizer.io -->
<g id="layer1" fill="#ffffff" stroke="none">
 <path d="M324 566 c-3 -8 -4 -25 -2 -38 2 -19 9 -23 38 -23 33 0 35 2 35 35 0 32 -3 35 -33 38 -21 2 -34 -2 -38 -12z"/>
 <path d="M388 458 c-25 -20 -28 -20 -52 -5 -36 24 -65 21 -75 -5 -28 -74 119 -119 185 -57 40 37 29 91 -19 88 -7 0 -24 -10 -39 -21z"/>
 <path d="M479 354 c-59 -63 -139 -72 -210 -24 -73 49 -124 35 -117 -32 2 -27 12 -39 51 -65 62 -42 118 -57 184 -50 88 9 203 86 203 136 0 58 -69 80 -111 35z"/>
 <path d="M615 230 c-30 -27 -78 -62 -107 -77 -47 -25 -64 -28 -148 -28 -107 0 -149 14 -233 78 -51 40 -86 46 -111 21 -44 -43 6 -109 129 -169 184 -91 389 -61 539 79 45 42 56 58 56 83 0 36 -22 63 -51 63 -10 0 -44 -22 -74 -50z"/>
 </g>

</svg>