<!DOCTYPE svg PUBLIC "-//W3C//DTD SVG 20010904//EN" "http://www.w3.org/TR/2001/REC-SVG-20010904/DTD/svg10.dtd">
<svg version="1.0" xmlns="http://www.w3.org/2000/svg" width="74px" height="59px" viewBox="0 0 740 590" preserveAspectRatio="xMidYMid meet">
<!-- generated by www.vectorizer.io -->
<g id="layer1" fill="#ffffff" stroke="none">
 <path d="M322 563 c-15 -28 3 -63 31 -63 31 0 50 22 45 52 -4 30 -62 39 -76 11z"/>
 <path d="M390 465 c-14 -17 -56 -20 -65 -5 -9 15 -51 12 -65 -5 -31 -38 25 -90 98 -90 80 0 140 63 100 103 -17 17 -53 15 -68 -3z"/>
 <path d="M460 345 c-66 -55 -135 -58 -201 -9 -18 13 -45 24 -59 24 -29 0 -60 -27 -60 -52 0 -54 116 -120 213 -121 109 -1 227 71 227 138 0 65 -55 74 -120 20z"/>
 </g>
<g id="layer2" fill="#96989a" stroke="none">
 <path d="M606 231 c-129 -131 -326 -144 -474 -31 -75 57 -132 53 -132 -10 0 -34 13 -50 84 -99 159 -110 370 -112 530 -6 69 46 126 108 126 138 0 13 -8 31 -18 40 -33 30 -64 21 -116 -32z"/>
 </g>

</svg>