<!DOCTYPE svg PUBLIC "-//W3C//DTD SVG 20010904//EN" "http://www.w3.org/TR/2001/REC-SVG-20010904/DTD/svg10.dtd">
<!--suppress ALL -->
<svg version="1.0" xmlns="http://www.w3.org/2000/svg" width="74px" height="59px" viewBox="0 0 740 590" preserveAspectRatio="xMidYMid meet">
<!-- generated by www.vectorizer.io -->
<g id="layer1" fill="#ffffff" stroke="none">
 <path d="M330 570 c-38 -38 14 -94 56 -60 20 18 17 57 -5 70 -26 13 -28 13 -51 -10z"/>
 <path d="M390 465 c-14 -17 -56 -20 -65 -5 -9 15 -51 12 -65 -5 -31 -38 25 -90 98 -90 80 0 140 63 100 103 -17 17 -53 15 -68 -3z"/>
 </g>
<g id="layer2" fill="#96989a" stroke="none">
 <path d="M460 345 c-23 -19 -53 -38 -67 -41 -38 -10 -92 3 -132 31 -21 14 -49 25 -62 25 -28 0 -59 -27 -59 -52 0 -54 116 -120 213 -121 107 -1 227 71 227 137 0 66 -55 76 -120 21z"/>
 </g>

</svg>